<?xml version="1.0" encoding="UTF-8"?>
<svg id="Capa_1" xmlns="http://www.w3.org/2000/svg" version="1.1" viewBox="0 0 396.85 396.85">
  <!-- Generator: Adobe Illustrator 29.5.1, SVG Export Plug-In . SVG Version: 2.1.0 Build 141)  -->
  <path d="M283.51,71.84c6.72-5.81,16.44-14.8,25.61-15.89,12.61-1.5,28.87,4.98,30.4,18.89,7.64-2.09,11.97-5.28,20.21-2.72,29.05,9.02,13.87,56.39-18.2,49.17-2.46-.56-.14,6.23.99,7.03,1.29.92,4.37.8,6.27,1.73,1.24.6,5.64,4.3,6.57,5.43,8.83,10.8,3.52,32.53,3.11,45.81-.18,5.81.16,11.69.09,17.49,10.77.55,21.14,5.35,26.48,15.02,4.63,8.39,7.27,23.07-1.02,30.05-10.79,9.08-19.03-4.52-29.51-5.01.3,15.22-6.78,36.82-24.81,37.78-3.31.18-9.26-2.34-11.18-1.33-1.03.54-9.03,12.61-11.04,15.03-57.78,69.63-164.88,67.2-219.63-4.39-8.87,3.41-15.91,6.79-25.84,5.9-10.87-.97-22.87-9.29-24.42-20.57-.81-5.93,1.55-13.67.91-17.83-.35-2.3-3.4-5.08-4.5-7.58-4.54-10.31-2.59-23.51.5-33.99-13.89,1.09-26.24-11.99-27.02-25.55-1.42-24.74,39.09-50.25,59.95-56.03,2-.55,4.02-.51,6.06-.44.12-2.63-2.81-3.56-3.57-5.95-2.8-8.8,8.53-12.53,8.55-13.55-8.56-7.53-1.58-13.99,6.33-17.69,1.87-.88,9.09-2.64,9.48-3.02.69-.69.65-4.4,2.18-6.32,5.26-6.6,23.18-3.55,24.03-4.46.27-.29.04-5,1.69-7.71,4.95-8.1,18.14-.11,23.72-.34,4.21-.17,18.03-6.4,24.36-7.67,20.67-4.14,41.88-3.89,62.43,1.02,8.55,2.04,16.6,5.69,24.79,8.72l-12.31,5.8c-22.59-8.89-47.98-10.87-71.68-5.8,4,6.18,8.35,3.01,13.46,2.95,18.72-.24,35.64-.17,53.54,6.05-13.86,13.85-11.66,36.01,3.53,47.96,3.18,2.5,5.65,4.94,7.47-.43-22.01-12.68-21.33-41.56,3.47-50.58,6.93-2.52,16.11-3.11,22.54-6.96l.99.51c-.12.53.17,1.22,0,1.47-.22.34-6.24,3.68-6.99,4.02-9.45,4.26-24.63,5.42-28.74,16.77-3.18,8.79.68,17.81,6.74,24.23,7.91,8.39,18.21,8.46,25.98-.5-.02-.5-4.97-3.51-5.98-4.5-3.77-3.67-10.5-13.69-1-6,1.14.92,2.06,2.54,2.75,2.97,10.93,6.8,27,4.96,33.25-6.97,2.54-1.59.37-3.13,4-2l-2,8.99c9.29-1.5,14.9-7.72,16-16.99.43-.61-1.09-2.7,1.99-1.99-.29,4.36.82,9.96-.99,13.99-.65,1.45-3.47,2.73-3,4.99,7.82.96,9.37-1.23,14-5.99,1.23-1.26,1.82-3.37,3.99-3,1,1.17-2.1,7.61-2.99,9-.23.35-2.58,1.25-2,1.99,3.49.67,7.07,2.55,10.61,2.9,27.59,2.75,33.54-35.93,10.39-37.89-5.27-.45-9.46.3-14,3l-6,2.99c4.87-7.84-3.22-15.88-10.56-17.93-20.9-5.84-30.97,11.85-48.44,17.94-.99.04-2.01.01-3,0-.33,0-.67,0-1,0-.35,0-8.15,2.25-5-.98.27-.27,5.53-2.2,7-3.02,6.31-3.52,5.86-4.42,10-8ZM160.51,73.84c-.92-.21-2.86-1.87-5-1l1.5,8.01c-.74-3.44-3.31-1.41-5.77-2.23-4.08-1.35-24.11-10.31-25.54-3.14-.16.78.48,2.57,1.06,3.11.49.46,10.35,3.36,12.75,4.24-2.17-.19-4.77-.05-7,0-1.32.03-3.31-.5-4,1-5.99.12-23.19-1.06-27.41,1.89-3.63,2.53,1.53,5.29,1.41,5.61-1.2,3.13-23.97,5.91-22.54,12.59,1.34,6.22,8.91-.03,12.52-.59-2.83,3.4-5.7,7.02-8.97,10.02-1.86,1.7-12.54,7.01-8.04,10.02,2.98,1.99,13.85-3.04,18.55-3.51,3.65-.36,7.74.08,11.48-.02-1.25,2.42-16.7,8.22-11.41,12.1,4.43,3.24,16.06-6.07,20.96-7.06,3.97.83-1.17.65-1.6,1.62-5.93,13.48,17.41-.13,19.67-.36,2.82-.28,7.95,1.62,11.38.72-2.59,4.13-16,4.11-13.92,10.39s20.18-5.87,24.92-3.39c-.7,2.62-8.01,1.77-8.86,3.13-.48.77-.52,4.27.45,4.98,3.58,2.61,17.88-1.76,23.67-.88,13.84,2.09,17.81,11.58,28.95,16.07,1.7.68,7.75,2.65,9.31,2.77s9.85-1.45,10.49-2.08c.96-.95.22-2.1-1.49-1.99-6.05.38-9.16,2.22-15.8-.2-3.3-1.2-15.6-7.75-12.7-11.78-6.56-.03-13.84-4.98-19.77-5.8-5.11-.7-11.06,1.76-16.23,1.78-.47-2.85.59-1.67,2.31-2.13,3.56-.97,7.25-1.05,10.9-2.15,1.23-.37,4.6-1.23,4.78-2.71-6.47,1.65-14.79-2.21-20.43-1.94-3.92.19-10.83,5.78-12.57,1.94,5.81-1.48,11.83-3.53,15-9-7.29,1.99-14.27-.92-21.41.08-5.92.83-10.38,6.28-16.59,5.9.07-2.59,16.76-7.71,15-8.98-4.86.58-12.77.11-17.26,1.23-4.17,1.04-10.29,7.73-15.74,6.75,6.9-6.35,18.33-7.9,20.99-17.98-.57-.58-8.84,5.48-8.99,5.99-10.85,2.46-21.38-1.33-31.48,5.02-1.92-2.45,4.72-4.13,6.98-6.02,5.14-4.29,5.4-9.16,12.82-12.18,4.42-1.8,7.85-2.23,12.67-1.83-.97-1.92-5.61-2.84-7.5-3.01-4.99-.43-7.79,1.36-12.1,1.91-1.07.14-3.64.85-3.38-.89,12.39-3.12,23.76-10.66,36.99-9.02.07-.64-1.33-1.99-1.5-1.99h-18.5l1.48-2.01c15.92.92,32.53-4.23,47.52,3-2.83-9.44-16.7-10.76-24.99-13.01.21-1.76,5.35-1.15,6.5-.99,6.3.84,12.05,4.44,17.83,6.17,4.58,1.38,8.79,1.17,13.93,3.07,4.76,1.76,8.8,4.67,12.73,7.76-1.25-9.31-16.86-11.26-20.99-16l4-1c1.07,1.9,6.56,3.07,8,4,2.87,1.86,6,5.27,8.66,6.84,8.87,5.27,21.69,7.28,26.35,18.15,1.96.33.53-2.51.99-3,3.29-3.51,23.42,15.95,24.03,24.53.56,7.91-8.85,21.86,2.97,23.47-5.96-6.65-2.33-7.8-1.26-14.75,1.49-9.65,1.05-14.54-5.23-22.25-3.26-4.01-12.76-11.9-17.53-13.56-7.32-2.54-6.15-3.11-12.68-7.23-7.2-4.55-17.55-9.01-25.3-13.2-2.98-1.61-5.34-3.87-9-5-.53-.16-1.4.14-2,0ZM180.51,107.84c-1.31-12.09-7.29-20.02-19.99-20.99l8.99,9.99-10.99-5.99c3.07,9.11,4.93,14.3,13.97,18.52,4.19,1.96,8.76,5.3,8.03-1.53ZM154.51,99.84c-4.67-10.74-11.76-12.46-22.99-11.99l8,3.49,2.99,3.5c-2.6-.86-6.47-2.57-9-1.5,5.85,8.32,12.55,11.89,22.99,11.49-.76-1.62-1.29-3.35-2-4.99ZM129.51,98.84c-4.53-5.35-6.93-6.6-14.22-5.71-.96.12-4,.29-3.77,1.7,3.47.59,8.4.27,10.99,3.01-3.94-.31-8.04.22-11.99.01l7.1,4.42c.88.64,2.05.35,2.9.57,3.2.84,5.35,1.49,9,1,.8-.11,1.89.02,2-1l.98-.51c-.04-.28-.88-.28-.98-.49-.65-1.35-1.06-1.88-2-3ZM192.51,100.84l-.49,2.99c-2.66-2.11-3.9-6.69-7.49-7.5,2.19,5.43,1.94,12,4.77,17.22,1.11,2.04,7.88,8.48,9.72,9.29,3.89,1.71-3.12-8.61-1.5-9.99,1.12.38,2.37,2.02,2.99,3,1.5,2.37,1.62,5.9,4,7v-14.5c0-4.16-13.14-14.8-17.98-15.01,1.79,2.58,3.8,5.28,5.98,7.51ZM117.51,105.85c-10.44-1.59-18.46-3.16-26,5.98l8.99-.98-4.99,3.98c9.51,1.21,16.56-.91,22-8.98ZM138.5,106.85c-5.66-2.33-15.57.85-17.52,7.01-.39,1.24,2.63,2.44-.48,4.97,3.45.17,6.82.18,9.92-1.57,1.45-.82,8.79-9.47,8.08-10.41ZM145.51,106.85c-5.68-.13-6.96,7.43-10.98,10.5.95.69,2.4-1.34,3.03-1.99,2.67-2.78,5.39-5.63,7.95-8.51ZM211.51,109.84c.1,3.28-.28,6.79,0,10,.08.98-.12,2.03,0,3,.77,6.3,3.65,11.04,8.5,15,.91-.53.58-2.98.5-4-.07-.85-.02-1.73-1-2,.08-1.28,1-2.86,1-4l4.99,12c-.16-3.98,1.99-7.57,2.09-11.5.21-9.16-9.26-17.32-16.57-21.51-.95.34.46,1.97.49,3.01ZM158.51,109.84c-8.03-2.01-11.84-1.33-17.01,5.49-1.45,1.91-1.83,2.82,1.01,2.51-1.06.77-3.1,2.87-4,3.99,10.06,1.4,17.39-1.53,23-9.99.11-.17.95-.13.98-.49l-.98-.51c-.57-1.36-2.04-.76-3-1ZM163.51,124.84c-2.35,1.41-5.26,2.77-7,4.99,3.98-.43,7.39,1.35,11.39.95,6.01-.61,10.23-5.51,14.61-8.94,1.12-.88,3.62-1.07,4-2.99-12.79-5.56-20.19-4.76-28.98,6.5l5.98-.51ZM333.51,122.84c-1.56-2.66-.83-2.53-4.13-4.38-12.12-6.77-34.23-3.52-46.25,2.5-2.43,1.22-12.47,8.03-12.38,10.39.01.38,4.42,5.87,4.76,6.04.62.32,8.05-.73,10.49-.54,5.2.41,12.39,4.18,16.51-.02,2.37.22,4.26-.97,6-1,6.48-.12,9.12,1.93,14.48,5,1.77-1.55,2.88-4.1.14-5.13-4.67-1.76-9.77-1.55-14.61-1.88-3.02-.21-7.7,1.18-9-1.99,5.1-.41,11.5-2.11,16.5-2.1,6.72.01,12.36,2.76,19.43-.97.92-2.96-.85-4.09-1.93-5.94ZM204.5,129.85c-10.59-5.88-17.35-4.62-26.5,2.98l3.5,1.99c-11.37,1.27-.15,5.44,4.61,5.95,5.39.58,14.68-3.19,18.39-6.93l-8.99-.51,8.99-3.49ZM241.5,149.84c-.91-2.71,3.94-11.61,3.86-12.52-.06-.73-6.95-5.14-7.84-4.48-2.3,6.67-3.84,13.74,3.98,16.99ZM265.22,139.14c-13.35-10.58-22.61,26.19-6.76,28.26,1.46.19,5.99-1.21,6.06-.07-1.24,1.21-3.15,1.04-3.82,3.2-1.35,4.36-1.49,11.82-2.91,17.09-2.08,7.72-8.58,24.64-17.8,25.28-6.45.45-8.74-4.38-9.48-10.05,21.64,3.35,27.24-48.36,2.95-43.59-11.02,2.16-15.93,16.72-17.64,26.4-1.87,10.59.4,21.6-6.33,30.67-7.16,9.66-16.47,5.44-20.98-3.93,11.79-7.14,29-21.85,22.2-37.27-2.69-6.1-9.6-9.91-16.27-7.84-1.36.42-6.85,5.78-7.57,6.91-2.14,3.35-2.17,7.27-3.85,10.7-.74,1.5-.02,2.41-2.52,1.93.07-7.56,5.47-17.87,3.52-25.03-2.23-8.21-19.36-16.36-19.58-6.52-.09,3.99,2.23,9.19,2.09,15.09-.37,15.24-3.14,30.73-4.03,45.97-.26,4.47.17,9.01-.02,13.48-7.82-2.35-5.74-20.51-4.87-27.37s6.26-15.39-1.75-19.49c-6.65-3.41-10.09.1-10.38,6.87-11.78-5.57-18.05-4.11-24.51,6.98l-7.47,17.01c-1-10.38-5.41-22.39-18.01-21,16.42-21.59,10.98-58.36-22.41-53.91-17.83,2.38-57.55,27.61-55.59,48.42.69,7.32,11.46,19.21,17.75,13.23,1.34-1.27,7.73-17.21,10.84-21.65,6.63-9.47,26.45-27.69,38.7-24.87,4.39,1.01,6.42,5.11,6.76,9.24,1.2,14.57-13.03,30.1-24.55,37.54-2.15-5.58,7.92-22.09,7.03-26.1s-8.58-8.82-12.54-6.4c-3.13,1.92-17.48,42.33-18.71,48.29-2.12,10.27-4.97,29.61,8.72,32.24-16.84,28.32,11.7,43.76,34.48,25.96,3.12-2.44,9.95-7.89,5.52-10.97,8.6-1.15,14.81-8.48,19.17-15.34,1.09-1.72,3.51-8.34,3.85-8.67,2.04-1.97,2.53,4.3,3.08,5.4,9.38,18.77,28.04,10.12,30.91-7.4,1.63.98,1.52,3.42,2.98,5.5,6.78,9.62,16.32,4.77,18.02-5.5,2.41,1.17-.29,5.33,1.96,7.53,1.73,1.69,8.63,2.79,11.07,2.04,7.83-2.41.43-9.16-.97-14.13-1.1-3.9-1.31-7.41-1.05-11.44,7.3,7.33,16.7,21.45,28.69,15.2,6.85-3.57,11.25-15.79,11.31-23.19,3.29,1.8,1.32,7.38,2.18,10.31.73,2.52,7.73,5.39,10.28,5.71,20.61,2.56,31.43-17.72,35.23-34.82,1.19-5.33,2.52-28.63,3.46-30.03.25-.37,7.58-3.07,8.34-3.18,2.08-.29,1.73.9,1.45,2.45-1.07,5.95-5.18,13.75-6.49,20.52-6.75,34.81,16.3,42.54,33.05,14.06-3.5,9.96,5.83,12.81,13.78,9.77,6.32-2.42,8.27-9.38,12.7-13.79l-1.47,18.02c-19.53,7.29-55.18,18.3-27.53,42.49,11.65,10.19,29.42,20.01,36.79-.23,1.36-3.72,4.7-21.58,3.09-24.14-.81-1.29-5.67-.11-5.86-2.13,6.21-1.61,12.86-1.12,19.04.44,9.5,2.41,23.06,16.64,20.84-2.85-1-8.77-7.51-16.29-16.47-17.52-4.63-.64-9.03.42-13.34.52-3.22.08-1.06-2.34-1.05-4.08.08-11.35.54-22.73.94-34.07.3-8.44,5.16-30.51-6.67-33.24-2.5-.58-7.51-.86-8.8,1.78-.79,12.24-2.4,24.45-5.78,36.22-1.18,4.11-5.28,20.56-11.59,16.65-6.58-4.07,10.33-32.3.89-43.39-2.11-2.48-4.78-4.94-8.28-4.32-7.32,1.3-3.77,8.36-4.19,12.89-.63,6.69-3.23,14.71-4.41,21.59-1.06,6.18.82,20.97-7.64,20.47s-5.15-16.2-3.53-21.64c2.35-7.88,11.85-18.93,1.39-25.31-8.23-5.03-12.06,2.53-20.35,1.85.76-4.65-1.6-12.78-5.29-15.7ZM221.5,144.85c-8.89-6.56-17.36-3.24-26.59.89-.93.42-2.91.33-1.39,2.08.35.4,8.29,4.86,9.27,5.24,7.32,2.83,13.46,0,20.72-1.22,2.72-2.93-10.37-4.19-11.99-4-.27-1.3,1.86-1.6,2.74-1.74,2.1-.32,6.4.57,7.25-1.24ZM117.49,188.83c.14-.1.4-1.9,1.46-3.02,5.99-6.3,11.29-11.23,19.58-14.46,6.27-2.45,26.09-4.99,15.52-16.56-8.51-9.31-24.53,4.96-29.95,12.13-2.22,2.93-9.65,16.48-9.56,19.47.04,1.5,1.81,3.24,2.96,2.43ZM265.51,225.84c14.64,2.82,7.88-9.65,3.14-6.86-.33.19-3.63,6.43-3.14,6.86ZM292.43,270.76c2.66-1.8.21-15.19-.86-18.47-8.11-24.81-39.37-17.31-58.47-12.37-31.41,8.12-68.49,27.16-101.12,24.96-3-.2-18.74-3.76-19.46-3.04-1.86,8.3,12.39,11.43,18.51,11.98,47.01,4.2,95.84-32.67,140.75-13.75,4.03,1.7,18.54,12.11,20.66,10.68ZM245.51,263.85c-9.65-.02-19.54,1.54-29.01,3.48s-22.92,5.21-31.6,8.41c-5.02,1.85,3.19,2.99,5.07,3.14,19.64,1.56,40.03-2.39,55.54-15.03ZM309.47,268.89c-.15-.22-4.33-1.4-4.89-1-.22.16-.52,2.34-1.21,3.27-8.98,12.06-17.7,22.16-29.95,31.08-55.32,40.28-133.97,28.5-174.44-26.41-7,2.15-.83,7.65,2.02,11.01,50.45,59.37,143.77,59.12,195.54,1.51,2.27-2.53,14.56-17.14,12.94-19.48ZM271.52,271.85c-1.02-1.43-7.25-1.1-7.02,3.4.21,4.11,3.33,5.21,7.01,4.61l-.99,3.99c5.62,1.02,8.47-4.78,3.52-8.04-1.34-.89-3.41-.83-3.54-.96-.21-.21,1.38-2.48,1.02-2.98ZM262.5,276.85c-.75-.78-5.68,2.27-5.9,3.62-.14.84,5.29,11.83,7.32,11.33,3.97-.98,8.35-8.72-.4-4.96l.99-3.99h-3.99s1.99-6,1.99-6ZM147.08,289.45c.75-1.52,2.12-2.39.99-4.59-4.35-8.44-10.44,4.55-11.55,8.97,8.86,3.82,6.39,1.74,9.33-3.66.22-.4,1.12-.48,1.23-.71ZM253.5,282.84l-2,3.99c-1.62.45-.64-1.73-1.48-2.02-1.07-.37-3.2-.3-2.5,1.51,2.09,1,5.57,10.11,6.08,10.43.55.36,2.02-.04,2.9.08-1.9-4.82,4.19-.97,3.98-3.5-.07-.79-8.24-6.8-6.99-10.5ZM149.51,292.84c-.58,1.14-4.1,2.87-2.99,6,6.59-2.57,1.99,2.24,6.99,3-.81-1.93,1.02-4.9,1.01-6,5.15-4.14,3.8-7.87-2.4-8.92-2.59.99-1.95,4.64-2.6,5.92ZM246.51,292.84c-1.87-2.47-1.64-6.04-5.97-3.96-.95,2.84,1.4,5.1,1.97,6.96.44,1.44-.89,5.01,1.51,5.99,4.35,1.78.42-4.15,2.99-3.98.6.04,1.67,2.71,3.49,1.98.6-3.38-2.49-5-3.99-7ZM166.5,294.84c.81-2.56-4.8-4.79-5.95-3.97l-4.01,12.92,6.96,1.05-3-4.99c4.83.62,2.61-1.43,2-5h4ZM237.43,292.94c-.67-1.04-6.5-1.34-6.97.57-.67,2.7,1.6,11.41,4.75,12.19,4.65,1.15,7.3-5.88,2.8-5.89-.69,0-.13,2.97-1.98,2.02-1.57-.8-2.24-5.37-3.51-6.98.33-.27,8.01,2.91,4.92-1.91ZM169.51,298.84c-7.81,14.81-.32,4.79,2,7,.3.29-.83,4.11,1.49,2.99s1.45-4.99,1.52-6.99c.08-2.32-.04-4.68,0-7.01-5.49-.9-3.55,1.27-5,4.01ZM177.51,309.84c1.98-.18,6.46.72,7.57-.94.8-1.19,1.76-9.8,0-11.13-8.21-6.26-7.54,6.7-7.58,12.07ZM222.51,301.84c-1.45-5.33,1.78-6.99-8.01-4.99.47,1.59.6,3.46,1.01,4.99.12.43.59.8,1,1,.06.29-.02.66,0,1,.27,4.72-1.61,7.83,5.29,5.8,5.17-1.52,1.26-5.77.71-7.8ZM194.51,306.84c-.17,1.06-1.89,2.99-.99,5,4.62.98,2.24-1.92,3.1-2.87.47-.52,2.08-.02,2.9-.13.2.83-.14,2.05,0,2.99h1.99c.82-1.82-.81-3.18-.99-3.99-.73-3.27-1.05-6.63-1.01-10-5.84-1.58-4.31,4.65-4.99,9ZM204.51,303.84c.33,3.5-.09,12.9,4.02,5,1.63-.42.47,1.74,1.62,2.01.96.23,2.28-.15,3.36-.01-.46-1.96-.54-12.54-1-13.01-.96-.98-3.79,1.01-4,1-.77-.01-4.07-1.87-5-.99-.34.32.87,4.67,1,5.99Z"/>
  <path d="M60.56,257.88c.23-.25,2.25.48,3.05-.63,1.8-2.51,3.91-10.36,6.49-14.33,1.05-1.62,2.06-3.23,3.37-4.66,1.46-1.6,4.96-1.1,2-3.88-6.84-6.43-14.46,3.13-14.95,2.46-.57-7.13.72-14.04,2-21,2.15-.25,3.05,1.87,4.94,2.54,6.2,2.23,4.48-1.05,7.04-4.06,11.41-13.41,26.9-19.16,19.95,5.95-2.47,8.91-8.44,20.69-13.52,28.48-2.98,4.57-12.54,19.25-19.01,14.17-1.16-.91-2.08-4.26-1.36-5.05Z"/>
  <path d="M136.1,198.92c5.11-1.58,3.61,13.99,3.4,17.41-.18,2.98-2.71,26.9-8.82,16.83-2.96-4.87-.06-32.55,5.41-34.24Z"/>
  <path d="M329.5,230.84c.03,7.3-1.7,17.94-11.27,15.81-2.81-.63-8.45-4.78-7.6-8.11.91-3.57,14.96-8,18.87-7.69Z"/>
  <path d="M199.5,177.84c.27.25.04,6.04-.22,7.28-1.3,6.17-8.87,13.88-13.76,17.72-.65-3.74,8.41-23.8,10.2-24.78.71-.39,3.63-.37,3.79-.23Z"/>
  <path d="M237.44,168.89c3.01,1.87-.8,23.91-5.42,22.94-2.58-.54-1.46-10.84-1.07-13.05s3.13-11.99,6.49-9.89Z"/>
  <path d="M251.5,91.85c-2.02,8.16-.49,15.02,1,22.99-6.4-5.07-7.05-12.41-4.14-19.69.66-1.65.72-3.95,3.14-3.31Z"/>
  <path d="M183.5,299.85c-.7,1.72.28,7.7-2.99,6.99.11-2.07-.53-7.6,2.99-6.99Z"/>
  <path d="M208.01,306.84c.65.33.65.67,0,1v-1Z"/>
  <path d="M218.51,303.84c-.21-.61-1.19-4.83-1-4.99.11-.1,2.88-.1,2.99,0,.27.23-.2,2.25,0,3,.43,1.6,1.49,3.02.99,5-2.18.63-2.3-1.02-2.99-3Z"/>
</svg>